<svg width="22" height="22" viewBox="0 0 22 22" fill="none" xmlns="http://www.w3.org/2000/svg">
<path d="M6.54289 7.95722L9.58637 10.9996L6.54284 14.0431C6.36277 14.2232 6.2505 14.4737 6.2505 14.7495C6.2505 15.3011 6.69665 15.7495 7.2505 15.7495C7.52627 15.7495 7.77683 15.6373 7.95692 15.4572L11.0004 12.4136L14.0428 15.4571L14.0443 15.4586C14.2247 15.6371 14.4744 15.7495 14.7505 15.7495C15.3026 15.7495 15.7505 15.3016 15.7505 14.7495C15.7505 14.4739 15.6384 14.223 15.4562 14.0424C15.456 14.0422 15.4557 14.0419 15.4554 14.0416L12.4145 10.9996L15.4569 7.95717C15.6379 7.77624 15.7505 7.52582 15.7505 7.2495C15.7505 6.6974 15.3026 6.2495 14.7505 6.2495C14.4741 6.2495 14.223 6.36135 14.0422 6.54374C14.0419 6.54401 14.0416 6.54429 14.0414 6.54456L11.0004 9.58547L7.95692 6.54309C7.9569 6.54308 7.95688 6.54306 7.95687 6.54304C7.77818 6.36439 7.52813 6.2495 7.2505 6.2495C6.69665 6.2495 6.2505 6.69789 6.2505 7.2495C6.2505 7.52564 6.36296 7.77531 6.54137 7.95571L6.54289 7.95722ZM11 19.375C6.38214 19.375 2.625 15.6167 2.625 11C2.625 6.38211 6.38211 2.625 11 2.625C15.6167 2.625 19.375 6.38214 19.375 11C19.375 15.6166 15.6166 19.375 11 19.375ZM21.375 11C21.375 5.27914 16.7209 0.625 11 0.625C5.27914 0.625 0.625 5.27914 0.625 11C0.625 16.7209 5.27914 21.375 11 21.375C16.7209 21.375 21.375 16.7209 21.375 11Z" fill="white" stroke="white" stroke-width="0.75"/>
</svg>
