<svg width="173" height="21" viewBox="0 0 173 21" fill="none" xmlns="http://www.w3.org/2000/svg">
<path d="M0 13.1173C0 11.8384 0.301702 10.6721 0.905105 9.61843C1.51751 8.56473 2.35057 7.74068 3.40428 7.14628C4.46699 6.55188 5.64678 6.25468 6.94364 6.25468C8.60976 6.25468 10.0417 6.74101 11.2395 7.71366C12.4463 8.6773 13.1533 9.92464 13.3604 11.4557H10.1048C9.95165 10.7622 9.58691 10.2083 9.01052 9.79405C8.44314 9.37077 7.75418 9.15912 6.94364 9.15912C5.8269 9.15912 4.92179 9.53738 4.22833 10.2939C3.53486 11.0504 3.18813 11.9915 3.18813 13.1173C3.18813 14.243 3.53486 15.1842 4.22833 15.9407C4.92179 16.6972 5.8269 17.0754 6.94364 17.0754C7.75418 17.0754 8.44314 16.8638 9.01052 16.4405C9.58691 16.0172 9.95165 15.4543 10.1048 14.7519H13.3604C13.1533 16.2919 12.4463 17.5437 11.2395 18.5074C10.0417 19.471 8.60976 19.9528 6.94364 19.9528C4.98033 19.9528 3.33223 19.2999 1.99934 17.994C0.666446 16.6792 0 15.0536 0 13.1173Z" fill="white"/>
<path d="M14.0375 13.1173C14.0375 11.145 14.6994 9.51036 16.0233 8.21349C17.3472 6.90762 19.0088 6.25468 21.0082 6.25468C22.9895 6.25468 24.6421 6.90762 25.966 8.21349C27.2899 9.51036 27.9518 11.145 27.9518 13.1173C27.9518 15.1076 27.2899 16.7647 25.966 18.0886C24.6421 19.4035 22.9895 20.0609 21.0082 20.0609C19.0178 20.0609 17.3562 19.4035 16.0233 18.0886C14.6994 16.7647 14.0375 15.1076 14.0375 13.1173ZM17.2256 13.1173C17.2256 14.261 17.5769 15.2202 18.2793 15.9947C18.9818 16.7692 19.8914 17.1565 21.0082 17.1565C22.1159 17.1565 23.021 16.7692 23.7235 15.9947C24.426 15.2202 24.7772 14.261 24.7772 13.1173C24.7772 11.9915 24.426 11.0504 23.7235 10.2939C23.021 9.53738 22.1159 9.15912 21.0082 9.15912C19.8914 9.15912 18.9818 9.53738 18.2793 10.2939C17.5769 11.0504 17.2256 11.9915 17.2256 13.1173Z" fill="white"/>
<path d="M29.0342 13.7792V6.55188H32.2088V13.5766C32.2088 14.7023 32.4925 15.5804 33.0598 16.2108C33.6362 16.8413 34.4243 17.1565 35.4239 17.1565C36.0093 17.1565 36.5992 16.9899 37.1936 16.6566C37.788 16.3144 38.3329 15.8326 38.8282 15.2112V6.55188H42.0028V19.6421H38.8282V18.5344C37.6394 19.5521 36.284 20.0609 34.762 20.0609C33.0418 20.0609 31.6549 19.489 30.6012 18.3453C29.5565 17.1925 29.0342 15.6705 29.0342 13.7792Z" fill="white"/>
<path d="M44.0983 19.6421V6.55188H47.3135V7.6326C48.5023 6.64194 49.8487 6.14661 51.3527 6.14661C53.0728 6.14661 54.4553 6.71849 55.5 7.86226C56.5537 9.00602 57.0805 10.5235 57.0805 12.4148V19.6421H53.8924V12.6174C53.8924 11.4827 53.6087 10.6046 53.0413 9.98318C52.4739 9.36176 51.6904 9.05105 50.6908 9.05105C50.1144 9.05105 49.529 9.21316 48.9346 9.53738C48.3492 9.86159 47.8088 10.3254 47.3135 10.9288V19.6421H44.0983Z" fill="white"/>
<path d="M57.0416 9.24018V6.55188H60.0271V1.76968H63.2152V6.55188H68.0515V9.24018H63.2152V14.6033C63.2152 16.2694 64.0438 17.1024 65.7009 17.1024C66.3583 17.1024 67.0968 16.9899 67.9164 16.7647L68.3622 19.507C67.6327 19.7322 67.0473 19.8808 66.606 19.9528C66.1647 20.0249 65.6604 20.0609 65.093 20.0609C63.535 20.0609 62.3011 19.5746 61.3915 18.6019C60.4819 17.6203 60.0271 16.2874 60.0271 14.6033V9.24018H57.0416Z" fill="white"/>
<path d="M69.4445 19.6421V0H72.6597V19.6421H69.4445Z" fill="white"/>
<path d="M74.0122 13.1173C74.0122 11.1359 74.6516 9.49685 75.9305 8.19998C77.2183 6.90312 78.8935 6.25468 80.9558 6.25468C82.1536 6.25468 83.2344 6.53387 84.198 7.09224C85.1707 7.64161 85.9362 8.42513 86.4945 9.44281C87.0529 10.4515 87.3366 11.5998 87.3456 12.8876C87.3456 13.5361 87.3186 14.0269 87.2646 14.3601H77.2273C77.4345 15.2337 77.8578 15.9317 78.4972 16.454C79.1366 16.9764 79.9832 17.2375 81.0369 17.2375C82.3338 17.2375 83.2209 16.8323 83.6982 16.0217H87.1025C86.7332 17.2195 85.9902 18.1742 84.8735 18.8856C83.7567 19.5971 82.4508 19.9528 80.9558 19.9528C78.8935 19.9528 77.2183 19.3044 75.9305 18.0075C74.6516 16.7107 74.0122 15.0806 74.0122 13.1173ZM77.2003 11.9825H84.0899C83.9819 11.0459 83.6396 10.3074 83.0633 9.76703C82.4869 9.22667 81.7304 8.95649 80.7937 8.95649C79.8121 8.95649 79.015 9.23567 78.4026 9.79405C77.7992 10.3524 77.3985 11.0819 77.2003 11.9825Z" fill="white"/>
<path d="M87.7795 15.2112L90.711 15.2382C90.9722 16.7152 92.0394 17.4537 93.9126 17.4537C94.6962 17.4537 95.3311 17.3276 95.8174 17.0754C96.3037 16.8142 96.5469 16.463 96.5469 16.0217C96.5469 15.6705 96.4118 15.3733 96.1416 15.1301C95.8714 14.887 95.4797 14.7203 94.9663 14.6303L92.1159 14.1575C91.5846 14.0584 91.0983 13.9233 90.657 13.7522C90.2247 13.5721 89.8194 13.3379 89.4411 13.0497C89.0719 12.7525 88.7792 12.3788 88.5631 11.9285C88.3559 11.4782 88.2523 10.9693 88.2523 10.402C88.2523 9.10509 88.7522 8.0829 89.7518 7.3354C90.7605 6.5789 92.0934 6.20065 93.7505 6.20065C94.2458 6.20065 94.7232 6.23667 95.1825 6.30872C95.6508 6.37176 96.1416 6.50235 96.655 6.70048C97.1683 6.89861 97.6186 7.15528 98.0059 7.4705C98.4021 7.7767 98.7399 8.19548 99.019 8.72684C99.2982 9.24918 99.4693 9.85259 99.5324 10.537L96.5739 10.5641C96.5199 9.93364 96.2317 9.46083 95.7093 9.14562C95.196 8.8214 94.5431 8.65929 93.7505 8.65929C93.003 8.65929 92.4221 8.79438 92.0079 9.06456C91.6026 9.32574 91.3999 9.65896 91.3999 10.0642C91.3999 10.8478 92.0169 11.3476 93.2507 11.5637L95.6823 11.9555C96.1146 12.0365 96.5064 12.1356 96.8576 12.2527C97.2088 12.3608 97.5601 12.5139 97.9113 12.712C98.2625 12.9101 98.5552 13.1443 98.7894 13.4145C99.0235 13.6756 99.2127 14.0044 99.3568 14.4006C99.5099 14.7969 99.5864 15.2427 99.5864 15.738C99.5864 17.0979 99.0506 18.1606 97.9789 18.9262C96.9161 19.6827 95.5337 20.0609 93.8316 20.0609C93.048 20.0609 92.3231 19.9709 91.6566 19.7907C90.9902 19.6196 90.3733 19.3539 89.8059 18.9937C89.2475 18.6245 88.7882 18.1201 88.428 17.4807C88.0677 16.8323 87.8516 16.0757 87.7795 15.2112Z" fill="white"/>
<path d="M100.088 15.2112L103.019 15.2382C103.281 16.7152 104.348 17.4537 106.221 17.4537C107.005 17.4537 107.639 17.3276 108.126 17.0754C108.612 16.8142 108.855 16.463 108.855 16.0217C108.855 15.6705 108.72 15.3733 108.45 15.1301C108.18 14.887 107.788 14.7203 107.275 14.6303L104.424 14.1575C103.893 14.0584 103.407 13.9233 102.965 13.7522C102.533 13.5721 102.128 13.3379 101.749 13.0497C101.38 12.7525 101.088 12.3788 100.871 11.9285C100.664 11.4782 100.561 10.9693 100.561 10.402C100.561 9.10509 101.061 8.0829 102.06 7.3354C103.069 6.5789 104.402 6.20065 106.059 6.20065C106.554 6.20065 107.032 6.23667 107.491 6.30872C107.959 6.37176 108.45 6.50235 108.963 6.70048C109.477 6.89861 109.927 7.15528 110.314 7.4705C110.71 7.7767 111.048 8.19548 111.327 8.72684C111.607 9.24918 111.778 9.85259 111.841 10.537L108.882 10.5641C108.828 9.93364 108.54 9.46083 108.018 9.14562C107.504 8.8214 106.851 8.65929 106.059 8.65929C105.311 8.65929 104.73 8.79438 104.316 9.06456C103.911 9.32574 103.708 9.65896 103.708 10.0642C103.708 10.8478 104.325 11.3476 105.559 11.5637L107.991 11.9555C108.423 12.0365 108.815 12.1356 109.166 12.2527C109.517 12.3608 109.868 12.5139 110.22 12.712C110.571 12.9101 110.864 13.1443 111.098 13.4145C111.332 13.6756 111.521 14.0044 111.665 14.4006C111.818 14.7969 111.895 15.2427 111.895 15.738C111.895 17.0979 111.359 18.1606 110.287 18.9262C109.224 19.6827 107.842 20.0609 106.14 20.0609C105.356 20.0609 104.631 19.9709 103.965 19.7907C103.299 19.6196 102.682 19.3539 102.114 18.9937C101.556 18.6245 101.097 18.1201 100.736 17.4807C100.376 16.8323 100.16 16.0757 100.088 15.2112Z" fill="white"/>
<path d="M113.855 19.6421V6.86259H115.733V8.29455C116.85 7.06072 118.273 6.44381 120.002 6.44381C120.956 6.44381 121.812 6.65095 122.569 7.06522C123.325 7.4705 123.933 8.05589 124.392 8.8214C125.68 7.23634 127.387 6.44381 129.512 6.44381C131.052 6.44381 132.304 6.97516 133.268 8.03787C134.231 9.09158 134.713 10.5055 134.713 12.2797V19.6421H132.835V12.3608C132.835 11.0369 132.511 10.0102 131.863 9.28071C131.223 8.55122 130.332 8.18647 129.188 8.18647C127.441 8.18647 126.076 9.00602 125.095 10.6451C125.203 11.1495 125.257 11.6943 125.257 12.2797V19.6421H123.339V12.3608C123.339 11.0369 123.014 10.0102 122.366 9.28071C121.717 8.55122 120.817 8.18647 119.664 8.18647C118.052 8.18647 116.742 8.96099 115.733 10.51V19.6421H113.855Z" fill="white"/>
<path d="M137.268 2.01285C137.268 1.6526 137.39 1.3509 137.633 1.10774C137.885 0.864578 138.196 0.742997 138.565 0.742997C138.925 0.742997 139.231 0.869081 139.483 1.12125C139.745 1.36441 139.875 1.66161 139.875 2.01285C139.875 2.38209 139.745 2.6883 139.483 2.93146C139.231 3.17462 138.925 3.2962 138.565 3.2962C138.196 3.2962 137.885 3.17462 137.633 2.93146C137.39 2.6883 137.268 2.38209 137.268 2.01285ZM137.633 19.6421V6.86259H139.537V19.6421H137.633Z" fill="white"/>
<path d="M142.903 19.6421V0H144.781V19.6421H142.903Z" fill="white"/>
<path d="M147.065 13.2524C147.065 11.3431 147.687 9.74452 148.93 8.45665C150.181 7.16879 151.771 6.52486 153.698 6.52486C155.508 6.52486 156.994 7.15528 158.156 8.41613C159.318 9.66796 159.908 11.262 159.926 13.1983C159.926 13.5676 159.917 13.8332 159.899 13.9954L159.791 13.9413V13.9954H148.97C149.114 15.2562 149.609 16.3009 150.456 17.1295C151.312 17.958 152.41 18.3723 153.752 18.3723C154.626 18.3723 155.387 18.1967 156.035 17.8454C156.693 17.4942 157.17 17.0124 157.467 16.4H159.507C159.138 17.4987 158.426 18.3768 157.373 19.0342C156.328 19.6827 155.103 20.0069 153.698 20.0069C151.771 20.0069 150.181 19.3629 148.93 18.0751C147.687 16.7782 147.065 15.1706 147.065 13.2524ZM148.97 12.5364H158.048C157.94 11.2305 157.49 10.1768 156.697 9.37527C155.905 8.56473 154.887 8.15946 153.644 8.15946C152.356 8.15946 151.289 8.57824 150.443 9.4158C149.605 10.2443 149.114 11.2845 148.97 12.5364Z" fill="white"/>
<path d="M161.076 15.684H162.845C163.269 17.5482 164.669 18.4804 167.047 18.4804C168.1 18.4804 168.947 18.2732 169.586 17.8589C170.235 17.4447 170.559 16.8953 170.559 16.2108C170.559 15.6615 170.356 15.2157 169.951 14.8734C169.555 14.5222 169.019 14.2971 168.344 14.198L165.412 13.6982C162.89 13.2929 161.63 12.1491 161.63 10.2669C161.63 9.1231 162.098 8.20449 163.035 7.51102C163.98 6.81756 165.223 6.47083 166.763 6.47083C167.439 6.47083 168.082 6.54738 168.695 6.70048C169.316 6.85358 169.893 7.08774 170.424 7.40295C170.955 7.70915 171.388 8.13244 171.721 8.6728C172.054 9.21316 172.248 9.83458 172.302 10.537H170.532C170.424 9.7175 170.041 9.09158 169.384 8.65929C168.726 8.21799 167.853 7.99735 166.763 7.99735C165.763 7.99735 164.971 8.19548 164.385 8.59174C163.8 8.979 163.507 9.48784 163.507 10.1183C163.507 11.199 164.345 11.8654 166.02 12.1176L168.573 12.5634C171.113 12.9957 172.383 14.1755 172.383 16.1028C172.383 17.3276 171.887 18.2957 170.897 19.0072C169.906 19.7097 168.614 20.0609 167.02 20.0609C165.327 20.0609 163.958 19.6917 162.913 18.9532C161.877 18.2057 161.265 17.1159 161.076 15.684Z" fill="white"/>
</svg>
