<svg width="11" height="6" viewBox="0 0 11 6" fill="none" xmlns="http://www.w3.org/2000/svg">
<path d="M9.9696 3.04154C8.92694 3.57523 7.88427 4.1089 6.8416 4.6426C6.57869 4.77717 6.31581 4.91174 6.0529 5.04632C6.16326 5.04632 6.27365 5.04632 6.38404 5.04632C5.6546 4.55234 4.92498 4.05871 4.19751 3.56176C3.06585 2.78872 1.93421 2.01569 0.802548 1.24266C0.705398 1.17628 0.608248 1.10992 0.511097 1.04357C0.511097 1.23545 0.511097 1.42733 0.511097 1.61921C0.981102 1.31614 1.45108 1.01307 1.92109 0.709968C1.83682 0.721183 1.75256 0.732373 1.6683 0.743587C2.63863 1.08973 3.60894 1.43586 4.57927 1.78198C5.61973 2.15312 6.66019 2.52429 7.70065 2.89544C8.47394 3.17128 9.26661 3.39947 10.048 3.65078C10.2185 3.70561 10.4055 3.58807 10.4516 3.41797C10.5003 3.23778 10.3928 3.0627 10.2224 3.00792C9.38173 2.73753 8.53231 2.48703 7.70023 2.1902C6.47805 1.75422 5.2559 1.31826 4.03372 0.882279C3.44718 0.673039 2.86063 0.463823 2.27409 0.254583C2.14039 0.206892 2.00671 0.159201 1.87303 0.11151C1.66553 0.0374857 1.48405 0.202582 1.31958 0.308655C0.939697 0.553633 0.559836 0.798588 0.179953 1.04357C-0.0359757 1.18281 -0.0266496 1.47809 0.179953 1.61921C1.11096 2.2552 2.04197 2.89118 2.97301 3.52714C3.78208 4.07981 4.59131 4.63217 5.40258 5.18153C5.61935 5.32834 5.83615 5.47513 6.05294 5.62194C6.15347 5.69001 6.28239 5.67401 6.38409 5.62194C7.42675 5.08824 8.46942 4.55457 9.51208 4.02088C9.77499 3.88631 10.0379 3.75173 10.3008 3.61716C10.4604 3.53547 10.5046 3.31042 10.4185 3.16111C10.324 2.99723 10.1293 2.95977 9.9696 3.04154Z" fill="#002A25"/>
</svg>
