<svg width="15" height="14" viewBox="0 0 15 14" fill="none" xmlns="http://www.w3.org/2000/svg">
<path d="M8.02636 0.439498L9.67748 3.78509C9.7923 4.01778 10.0143 4.17901 10.2711 4.21627L13.9633 4.7528C14.6101 4.84685 14.8681 5.64141 14.4003 6.09732L11.7286 8.70149C11.543 8.88257 11.4581 9.14366 11.502 9.39925L12.1326 13.0765C12.2432 13.7205 11.5671 14.2115 10.9887 13.9077L7.68649 12.1717C7.45686 12.051 7.18233 12.051 6.9527 12.1717L3.65047 13.9077C3.0721 14.2118 2.39602 13.7205 2.50656 13.0765L3.13715 9.39925C3.18112 9.14366 3.09623 8.88257 2.91056 8.70149L0.238916 6.09732C-0.228905 5.64111 0.0291291 4.84654 0.675895 4.7528L4.36808 4.21627C4.62489 4.17901 4.84689 4.01778 4.96171 3.78509L6.61282 0.439498C6.9017 -0.146499 7.73718 -0.146499 8.02636 0.439498Z" fill="#ED8A19"/>
</svg>
